<?xml version="1.0" encoding="UTF-8" standalone="no"?>
<!-- Created with Inkscape (http://www.inkscape.org/) -->

<svg
   xmlns:dc="http://purl.org/dc/elements/1.1/"
   xmlns:cc="http://creativecommons.org/ns#"
   xmlns:rdf="http://www.w3.org/1999/02/22-rdf-syntax-ns#"
   xmlns:svg="http://www.w3.org/2000/svg"
   xmlns="http://www.w3.org/2000/svg"
   xmlns:sodipodi="http://sodipodi.sourceforge.net/DTD/sodipodi-0.dtd"
   xmlns:inkscape="http://www.inkscape.org/namespaces/inkscape"
   width="621.26318"
   height="632.95734"
   id="svg2"
   version="1.1"
   inkscape:version="0.91 r13725"
   sodipodi:docname="hauntedhouse-yellowwindows.svg">
  <defs
     id="defs4" />
  <sodipodi:namedview
     id="base"
     pagecolor="#ffffff"
     bordercolor="#666666"
     borderopacity="1.0"
     inkscape:pageopacity="0.0"
     inkscape:pageshadow="2"
     inkscape:zoom="0.54565796"
     inkscape:cx="885.06851"
     inkscape:cy="-37.817603"
     inkscape:document-units="px"
     inkscape:current-layer="layer1"
     showgrid="false"
     inkscape:window-width="1916"
     inkscape:window-height="1035"
     inkscape:window-x="4"
     inkscape:window-y="1"
     inkscape:window-maximized="1"
     fit-margin-top="0"
     fit-margin-left="0"
     fit-margin-right="0"
     fit-margin-bottom="0" />
  <metadata
     id="metadata7">
    <rdf:RDF>
      <cc:Work
         rdf:about="">
        <dc:format>image/svg+xml</dc:format>
        <dc:type
           rdf:resource="http://purl.org/dc/dcmitype/StillImage" />
        <dc:title></dc:title>
      </cc:Work>
    </rdf:RDF>
  </metadata>
  <g
     inkscape:label="Layer 1"
     inkscape:groupmode="layer"
     id="layer1"
     transform="translate(739.35578,-144.50135)">
    <g
       id="g46110">
      <g
         id="g45564">
        <path
           style="color:#000000;display:inline;overflow:visible;visibility:visible;fill:#000000;fill-opacity:1;fill-rule:nonzero;stroke:none;stroke-width:2;marker:none;enable-background:accumulate"
           d="m -650.37691,735.01012 0,-192.37392 -44.48944,-11.09681 c 71.13983,-33.66278 100.25325,-70.05469 133.46831,-136.33222 l 335.2597,-6.34103 c 15.1928,77.58064 50.30392,107.55194 108.04577,155.35533 l -45.28388,-2e-5 -0.79446,201.88548 z"
           id="path4027"
           inkscape:connector-curvature="0"
           sodipodi:nodetypes="ccccccccc" />
        <path
           style="color:#000000;display:inline;overflow:visible;visibility:visible;fill:#000000;fill-opacity:1;fill-rule:nonzero;stroke:none;stroke-width:2;marker:none;enable-background:accumulate"
           d="m -335.77304,403.69111 14.30017,-91.945 -19.86136,-3.17051 c 30.10892,-19.1392 54.75378,-39.22562 79.44543,-73.71452 7.21042,43.78725 13.51053,46.54722 41.31163,79.26292 l -19.86136,0.79264 3.17782,101.45653 z"
           id="path4035"
           inkscape:connector-curvature="0"
           sodipodi:nodetypes="cccccccc" />
        <path
           style="color:#000000;display:inline;overflow:visible;visibility:visible;fill:#000000;fill-opacity:1;fill-rule:nonzero;stroke:none;stroke-width:2;marker:none;enable-background:accumulate"
           d="m -396.946,409.39484 -2.30352,-169.85764 30.90387,-3.09085 c -41.86837,-24.38435 -84.41309,-50.32191 -103.83396,-91.945 -4.2789,48.81379 -22.04775,80.04533 -57.20071,110.01614 l 29.39481,-2.45755 7.94454,164.46856 z"
           id="path4037"
           inkscape:connector-curvature="0"
           sodipodi:nodetypes="cccccccc" />
        <path
           style="color:#000000;display:inline;overflow:visible;visibility:visible;fill:#000000;fill-opacity:1;fill-rule:nonzero;stroke:none;stroke-width:2;marker:none;enable-background:accumulate"
           d="m -575.69821,733.42486 -128.7016,6.34104 7.94456,-410.58194 -42.90053,3.17051 c 64.28097,-43.29445 80.03245,-85.44728 101.69014,-155.35533 14.48684,57.90607 40.63819,99.98477 77.85652,144.25853 l -49.25616,-11.09681 z"
           id="path4039"
           inkscape:connector-curvature="0"
           sodipodi:nodetypes="cccccccc" />
        <path
           style="color:#000000;display:inline;overflow:visible;visibility:visible;fill:#f5dd27;fill-opacity:1;fill-rule:nonzero;stroke:none;stroke-width:2;marker:none;enable-background:accumulate"
           d="m -476.63096,734.29716 2.38336,-180.40281 78.09605,0 4.76672,182.7807 z"
           id="path4041"
           inkscape:connector-curvature="0"
           sodipodi:nodetypes="ccccc" />
        <path
           style="color:#000000;display:inline;overflow:visible;visibility:visible;fill:#f5dd27;fill-opacity:1;fill-rule:nonzero;stroke:none;stroke-width:2;marker:none;enable-background:accumulate"
           d="m -365.08632,585.97748 -1.5889,94.32288 77.85651,-2.37789 -2.38337,-91.94499 z"
           id="path4043"
           inkscape:connector-curvature="0" />
        <path
           style="color:#000000;display:inline;overflow:visible;visibility:visible;fill:#f5dd27;fill-opacity:1;fill-rule:nonzero;stroke:none;stroke-width:2;marker:none;enable-background:accumulate"
           d="m -266.57399,587.56273 2.38337,93.53025 61.17297,3.96314 2.38337,-95.1155 z"
           id="path4045"
           inkscape:connector-curvature="0" />
        <path
           style="color:#000000;display:inline;overflow:visible;visibility:visible;fill:#f5dd27;fill-opacity:1;stroke:#000000;stroke-width:7.8556571;stroke-miterlimit:4;stroke-dasharray:none;marker:none;enable-background:accumulate"
           d="m -328.45545,585.57501 -3.26379,108.20004 100.10123,3.96314 -9.53344,-123.65016 51.63953,-0.79262 -1.58892,47.00412 -187.4912,-16.64523 1.90047,46.33966 192.68505,2.24191"
           id="path4047"
           inkscape:connector-curvature="0"
           sodipodi:nodetypes="ccccccccc" />
        <path
           style="color:#000000;display:inline;overflow:visible;visibility:visible;fill:#f5dd27;fill-opacity:1;fill-rule:nonzero;stroke:none;stroke-width:5;marker:none;enable-background:accumulate"
           d="m -604.95886,574.879 -1.12352,104.80854 71.90578,1.68144 -3.37057,-103.12713 z"
           id="path4062"
           inkscape:connector-curvature="0"
           sodipodi:nodetypes="ccccc" />
        <path
           style="color:#000000;display:inline;overflow:visible;visibility:visible;fill:#f5dd27;fill-opacity:1;stroke:#000000;stroke-width:7.8556571;stroke-linecap:round;stroke-linejoin:round;stroke-miterlimit:4;stroke-dasharray:none;stroke-dashoffset:0;stroke-opacity:1;marker:none;enable-background:accumulate"
           d="m -615.0706,603.46316 92.69106,2.24189"
           id="path4064"
           inkscape:connector-curvature="0" />
        <path
           style="color:#000000;display:inline;overflow:visible;visibility:visible;fill:#f5dd27;fill-opacity:1;fill-rule:nonzero;stroke:#000000;stroke-width:7.8556571;stroke-miterlimit:4;stroke-dasharray:none;marker:none;enable-background:accumulate"
           d="m -568.4442,567.59286 -3.37057,132.83222"
           id="path4068"
           inkscape:connector-curvature="0"
           sodipodi:nodetypes="cc" />
        <path
           style="color:#000000;display:inline;overflow:visible;visibility:visible;fill:#f5dd27;fill-opacity:1;fill-rule:nonzero;stroke:none;stroke-width:2;marker:none;enable-background:accumulate"
           d="m -467.04821,321.65813 49.60444,0.66431 c 2.87727,-41.03426 -0.74963,-56.29699 -28.63076,-82.70559 -31.23865,25.6466 -24.24788,44.24104 -20.97368,82.04128 z"
           id="path4078"
           inkscape:connector-curvature="0"
           sodipodi:nodetypes="cccc" />
        <path
           style="color:#000000;display:inline;overflow:visible;visibility:visible;fill:#f5dd27;fill-opacity:1;fill-rule:nonzero;stroke:none;stroke-width:2;marker:none;enable-background:accumulate"
           d="m -305.18654,368.81541 c 3.094,-43.66944 -0.61341,-41.2609 25.42254,-71.73294 20.30982,29.13884 14.37905,38.28038 13.50572,73.71452 z"
           id="path4080"
           inkscape:connector-curvature="0"
           sodipodi:nodetypes="cccc" />
        <path
           style="color:#000000;display:inline;overflow:visible;visibility:visible;fill:#f5dd27;fill-opacity:1;fill-rule:nonzero;stroke:none;stroke-width:2;marker:none;enable-background:accumulate"
           d="m -667.85491,444.1152 c -8.69834,-48.66473 -3.34186,-82.25703 15.88909,-125.23542 24.14127,48.6308 17.72653,76.40073 16.68354,129.9912 z"
           id="path4082"
           inkscape:connector-curvature="0"
           sodipodi:nodetypes="cccc" />
        <path
           style="color:#000000;display:inline;overflow:visible;visibility:visible;fill:#000000;fill-opacity:1;fill-rule:nonzero;stroke:#000000;stroke-width:7.8556571;stroke-miterlimit:4;stroke-dasharray:none;marker:none;enable-background:accumulate"
           d="m -403.30164,361.52243 79.84265,2.37789"
           id="path4104"
           inkscape:connector-curvature="0" />
        <path
           style="color:#000000;display:inline;overflow:visible;visibility:visible;fill:#000000;fill-opacity:1;fill-rule:nonzero;stroke:#000000;stroke-width:7.8556571;stroke-linecap:butt;stroke-linejoin:miter;stroke-miterlimit:4;stroke-dasharray:none;stroke-dashoffset:0;stroke-opacity:1;marker:none;enable-background:accumulate"
           d="m -385.02919,399.69072 0.79445,-36.82004"
           id="path4106"
           inkscape:connector-curvature="0" />
        <path
           style="color:#000000;display:inline;overflow:visible;visibility:visible;fill:#000000;fill-opacity:1;fill-rule:nonzero;stroke:#000000;stroke-width:7.8556571;stroke-linecap:butt;stroke-linejoin:miter;stroke-miterlimit:4;stroke-dasharray:none;stroke-dashoffset:0;stroke-opacity:1;marker:none;enable-background:accumulate"
           d="m -369.53734,363.74045 1.98613,42.32855"
           id="path4108"
           inkscape:connector-curvature="0" />
        <path
           style="color:#000000;display:inline;overflow:visible;visibility:visible;fill:#000000;fill-opacity:1;fill-rule:nonzero;stroke:#000000;stroke-width:7.8556571;stroke-linecap:butt;stroke-linejoin:miter;stroke-miterlimit:4;stroke-dasharray:none;stroke-dashoffset:0;stroke-opacity:1;marker:none;enable-background:accumulate"
           d="m -354.83994,363.16062 1.19169,37.39985"
           id="path4110"
           inkscape:connector-curvature="0" />
        <path
           style="color:#000000;display:inline;overflow:visible;visibility:visible;fill:#000000;fill-opacity:1;fill-rule:nonzero;stroke:#000000;stroke-width:7.8556571;stroke-linecap:butt;stroke-linejoin:miter;stroke-miterlimit:4;stroke-dasharray:none;stroke-dashoffset:0;stroke-opacity:1;marker:none;enable-background:accumulate"
           d="m -338.95085,363.74045 -1.98613,37.10994"
           id="path4112"
           inkscape:connector-curvature="0" />
        <path
           style="color:#000000;display:inline;overflow:visible;visibility:visible;fill:none;stroke:#000000;stroke-width:7.8556571;stroke-linecap:butt;stroke-linejoin:miter;stroke-miterlimit:4;stroke-dasharray:none;stroke-dashoffset:0;stroke-opacity:1;marker:none;enable-background:accumulate"
           d="m -650.27064,308.6656 -2.80882,144.60217 27.52644,9.52805 -2.24705,-48.20072 -51.6823,-2.80237 3.37059,-48.76119 49.997,2.24189"
           id="path4128"
           inkscape:connector-curvature="0" />
        <path
           style="color:#000000;display:inline;overflow:visible;visibility:visible;fill:#f5dd27;fill-opacity:1;stroke:#000000;stroke-width:7.8556571;stroke-linecap:butt;stroke-linejoin:miter;stroke-miterlimit:4;stroke-dasharray:none;stroke-dashoffset:0;stroke-opacity:1;marker:none;enable-background:accumulate"
           d="m -445.78855,234.68311 2.24707,94.15955 36.51465,5.04425 -5.05587,-33.06793 -64.0411,-2.2419 -1.68529,-36.99125 62.3558,3.92332"
           id="path4130"
           inkscape:connector-curvature="0" />
        <path
           inkscape:connector-curvature="0"
           id="path4132"
           d="m -280.06817,292.41188 -9.54997,94.15955 48.31169,5.04425 -7.30292,-44.27742 -63.47934,-2.80236 0,-25.22131 62.35581,3.92332"
           style="color:#000000;display:inline;overflow:visible;visibility:visible;fill:none;stroke:#000000;stroke-width:7.8556571;stroke-linecap:butt;stroke-linejoin:miter;stroke-miterlimit:4;stroke-dasharray:none;stroke-dashoffset:0;stroke-opacity:1;marker:none;enable-background:accumulate"
           sodipodi:nodetypes="ccccccc" />
        <path
           inkscape:connector-curvature="0"
           id="path4142"
           d="m -612.68723,643.88725 92.69105,2.24189"
           style="color:#000000;display:inline;overflow:visible;visibility:visible;fill:#f5dd27;fill-opacity:1;stroke:#000000;stroke-width:7.8556571;stroke-linecap:round;stroke-linejoin:round;stroke-miterlimit:4;stroke-dasharray:none;stroke-dashoffset:0;stroke-opacity:1;marker:none;enable-background:accumulate" />
        <path
           style="color:#000000;display:inline;overflow:visible;visibility:visible;fill:#ffffff;fill-opacity:1;fill-rule:nonzero;stroke:none;stroke-width:2;marker:none;enable-background:accumulate"
           d="m -441.97264,521.82102 c 0,0 -62.82965,-12.851 -78.66061,-40.02297 -30.71019,-52.71043 48.0009,-71.67622 49.17472,-30.87094 0.53694,18.66535 29.8399,40.6125 38.32804,55.29485 l -8.41351,-1.84332 5.5958,13.53683 -11.50648,-10.02184 z"
           id="path4221"
           inkscape:connector-curvature="0"
           sodipodi:nodetypes="cssccccc" />
        <path
           style="color:#000000;display:inline;overflow:visible;visibility:visible;fill:#ffffff;fill-opacity:1;fill-rule:nonzero;stroke:none;stroke-width:2;marker:none;enable-background:accumulate"
           d="m -692.1387,707.51558 c 0,0 18.34124,-24.69611 11.90572,-50.00961 -6.43553,-25.31353 45.69221,-50.31833 45.69221,-2.46962 -1e-5,51.83241 -57.59793,52.47923 -57.59793,52.47923 z"
           id="path4223"
           inkscape:connector-curvature="0"
           sodipodi:nodetypes="cssc" />
        <path
           style="color:#000000;display:inline;overflow:visible;visibility:visible;fill:#000000;fill-opacity:1;fill-rule:nonzero;stroke:none;stroke-width:2;marker:none;enable-background:accumulate"
           d="m -516.10035,461.70345 c 5.73953,15.25505 17.64191,6.78675 11.14226,-2.79456 -6.49965,-9.58132 -15.61831,-9.10231 -11.14226,2.79456 z"
           id="path4225"
           inkscape:connector-curvature="0"
           sodipodi:nodetypes="sss" />
        <path
           style="color:#000000;display:inline;overflow:visible;visibility:visible;fill:#000000;fill-opacity:1;fill-rule:nonzero;stroke:none;stroke-width:2;marker:none;enable-background:accumulate"
           d="m -498.1411,454.38099 c 3.11382,17.41132 15.55947,10.81658 12.89212,0.47028 -2.66732,-10.34628 -16.00593,-17.88161 -12.89212,-0.47028 z"
           id="path4227"
           inkscape:connector-curvature="0"
           sodipodi:nodetypes="zzz" />
        <path
           style="color:#000000;display:inline;overflow:visible;visibility:visible;fill:#000000;fill-opacity:1;fill-rule:nonzero;stroke:none;stroke-width:2;marker:none;enable-background:accumulate"
           d="m -496.62652,477.94195 c 6.47051,19.41105 17.03243,13.9066 13.20011,-0.28973 -3.83228,-14.19631 -16.13219,-8.50634 -13.20011,0.28973 z"
           id="path4229"
           inkscape:connector-curvature="0"
           sodipodi:nodetypes="sss" />
        <path
           style="color:#000000;display:inline;overflow:visible;visibility:visible;fill:#000000;fill-opacity:1;fill-rule:nonzero;stroke:none;stroke-width:2;marker:none;enable-background:accumulate"
           d="m -660.46825,658.95497 c -5.93846,18.74048 2.56781,17.871 7.33661,6.11377 4.76879,-11.75725 -3.68893,-17.62502 -7.33661,-6.11377 z"
           id="path4231"
           inkscape:connector-curvature="0"
           sodipodi:nodetypes="sss" />
        <path
           style="color:#000000;display:inline;overflow:visible;visibility:visible;fill:#000000;fill-opacity:1;fill-rule:nonzero;stroke:none;stroke-width:2;marker:none;enable-background:accumulate"
           d="m -664.61082,642.98831 c -5.53988,10.94356 3.30604,15.32569 7.9345,4.78926 4.62847,-10.53642 -2.39464,-15.73285 -7.9345,-4.78926 z"
           id="path4233"
           inkscape:connector-curvature="0"
           sodipodi:nodetypes="zzz" />
        <path
           style="color:#000000;display:inline;overflow:visible;visibility:visible;fill:#000000;fill-opacity:1;fill-rule:nonzero;stroke:none;stroke-width:2;marker:none;enable-background:accumulate"
           d="m -652.45574,647.07489 c 1.67544,11.67368 14.20906,9.84749 10.2893,0.7878 -3.91973,-9.05968 -11.58224,-9.79625 -10.2893,-0.7878 z"
           id="path4235"
           inkscape:connector-curvature="0"
           sodipodi:nodetypes="sss" />
        <rect
           style="opacity:1;fill:#000000;fill-opacity:1;stroke:none;stroke-width:0.98000002;stroke-linecap:round;stroke-linejoin:round;stroke-miterlimit:4;stroke-dasharray:none;stroke-opacity:1"
           id="rect45558"
           width="22.973967"
           height="109.12634"
           x="-291.36343"
           y="587.58655" />
        <rect
           style="opacity:1;fill:#000000;fill-opacity:1;stroke:none;stroke-width:0.98000002;stroke-linecap:round;stroke-linejoin:round;stroke-miterlimit:4;stroke-dasharray:none;stroke-opacity:1"
           id="rect45560"
           width="13.784381"
           height="26.420063"
           x="-201.76495"
           y="627.79102" />
      </g>
      <path
         sodipodi:nodetypes="cccc"
         id="path45846"
         d="m -168.29146,693.85243 c 2.6,-3.63 6.47,-7.66 11.4,-6.64 -1.46,3.58 -7.35,4.2 -7.17,8.63 37.56504,35.3548 -39.22585,48.5677 -4.23,-1.99"
         class="st18"
         inkscape:connector-curvature="0"
         style="fill:#e99205;fill-opacity:1;stroke:#fac406;stroke-width:0.0938" />
      <path
         id="path45838"
         d="m -194.49018,704.52203 c 6.57,-0.412 50.061,-3.111 56.88,-2.17 23.595,18.454 25.392,71.046 -5.06,73.05 -1.002,-0.086 -32.675,-0.259 -38.69,0.88 9.76,0.79 19.55,-0.23 29.31,0.57 -8.32,0.92 -16.7,-0.26 -25.03,0.39 -18.757,2.135 -34.302,-16.394 -36.18,-26.23 -1.198,-19.747 -7.361,-26.622 9.2,-41.16 2.86,-2.23 5.77,-5.02 9.57,-5.33 m -6.87,24.12 c 9.811,0 13.986,-0.439 23.4,-2.54 -1.31,-4.715 -4.744,-8.355 -13.14,-15.56 -3.91,5.68 -8.7,11.21 -10.26,18.1 m 41.94,-3.98 c 2.41,3.7 5.27,7.21 9.15,9.47 7.25,-5.06 11.39,-13.92 10.18,-22.75 -6.95,3.58 -13.27,8.37 -19.33,13.28 m -19.85,13.2 c 7.31,-0.02 14.69,0.03 21.95,-1.07 -1.59,-2.62 -3.44,-5.12 -5.98,-6.87 -3.656,-6.206 -1.039,-1.576 -3.75,-6.66 -4.5,4.48 -8.53,9.44 -12.22,14.6 m 44.06,-4.28 c -0.26,2.32 -0.35,4.69 -0.89,6.98 -2.1,2.08 -4.67,4.39 -7.87,4.05 -1.13,1.4 -2.24,2.81 -3.35,4.23 -1,-0.78 -1.99,-1.56 -2.96,-2.32 -1.26,1.19 -2.49,2.39 -3.74,3.59 -1.95,-1.1 -3.88,-2.22 -5.87,-3.22 -2.01,1.73 -4.06,3.42 -6.17,5.03 -1.64,-1.31 -3.22,-2.66 -4.86,-3.94 -1.22,1.06 -2.36,2.24 -3.73,3.12 -3.67,0.35 -8.15,1.27 -10.68,-2.13 -1.94,0.31 -3.85,0.78 -5.77,1.15 -3.22,-4.02 -5.65,-8.99 -10.4,-11.46 l -0.12,-0.81 c -1.27,-0.49 -2.55,-0.97 -3.79,-1.42 0.58,6.78 2.26,14.31 7.69,18.89 3.83,1.52 7.87,2.53 11.67,4.18 4.44,0.66 11.37,1.78 12.97,-3.87 0.47,-0.16 1.4,-0.47 1.87,-0.63 1.37,0.75 2.74,1.51 4.12,2.31 2.31,-0.99 4.6,-2.02 6.89,-3.06 1.67,0.78 3.33,1.61 5.02,2.38 1.43,-0.88 2.88,-1.74 4.31,-2.62 1.19,0.28 2.38,0.56 3.59,0.88 3.04,-1.46 6.55,-3.06 9.96,-2.3 -0.36,1.13 -0.36,2.31 -0.02,3.55 2.06,-1.36 4.58,-2.56 5.5,-5.03 2.07,-5.2 2.4,-11.57 -1.09,-16.25 -0.57,-0.32 -1.71,-0.96 -2.28,-1.28 z"
         class="st14"
         inkscape:connector-curvature="0"
         style="fill:#e99205;fill-opacity:1;stroke:#fac306;stroke-width:0.0938" />
      <path
         id="path45840"
         d="m -201.36018,728.64203 c 1.56,-6.89 6.35,-12.42 10.26,-18.1 1.41,1.21 2.77,2.51 4.02,3.92 -3.13,4.24 -7.93,8.3 -7.62,14.05 -2.22,0.11 -4.45,0.13 -6.66,0.13 z"
         class="st15"
         inkscape:connector-curvature="0"
         style="fill:#c68721;fill-opacity:1;stroke:#c29805;stroke-width:0.0938" />
      <path
         id="path45842"
         d="m -159.42018,724.66203 c 6.06,-4.91 12.38,-9.7 19.33,-13.28 1.21,8.83 -2.93,17.69 -10.18,22.75 -3.88,-2.26 -6.74,-5.77 -9.15,-9.47 m 2.47,0.25 c 1.89,2.39 3.83,4.75 5.87,7.04 4.22,-4.26 8.27,-9.5 8.42,-15.78 -5.04,2.45 -9.59,5.73 -14.29,8.74 z"
         class="st16"
         inkscape:connector-curvature="0"
         style="fill:#c68721;fill-opacity:1;stroke:#c5a019;stroke-width:0.0938" />
      <path
         id="path45844"
         d="m -194.70018,728.51203 c -0.31,-5.75 4.49,-9.81 7.62,-14.05 3.87,3.08 7.75,6.71 9.12,11.64 -5.51,1.23 -11.08,2.31 -16.74,2.41 z"
         class="st17"
         inkscape:connector-curvature="0"
         style="fill:#0c0a04;stroke:#0c0a04;stroke-width:0.0938" />
      <path
         id="path45848"
         d="m -156.95018,724.91203 c 4.7,-3.01 9.25,-6.29 14.29,-8.74 -0.15,6.28 -4.2,11.52 -8.42,15.78 -2.04,-2.29 -3.98,-4.65 -5.87,-7.04 z"
         class="st19"
         inkscape:connector-curvature="0"
         style="fill:#0d0904;stroke:#0d0904;stroke-width:0.0938" />
      <path
         id="path45854"
         d="m -180.25838,739.84646 c 3.68844,-5.84965 7.71672,-11.47257 12.21481,-16.55133 0.47979,1.02029 0.99957,2.10859 1.46937,3.1969 -3.25861,3.0722 -5.75755,7.00597 -7.89664,11.12113 4.4781,0.11337 8.96619,-0.034 13.44428,-0.28341 -1.06954,-2.18795 -2.17907,-4.34189 -3.26861,-6.48449 2.53892,1.98389 4.38814,4.81802 5.97746,7.78819 -7.25691,1.24702 -14.63377,1.19033 -21.94067,1.21301 z"
         class="st21"
         inkscape:connector-curvature="0"
         style="fill:#c68721;fill-opacity:1;stroke:#c29a08;stroke-width:0.09985055" />
      <path
         id="path45858"
         d="m -176.06736,737.83139 c 3.06737,-3.97879 6.65075,-7.78223 11.32348,-10.75263 0.84281,1.09718 4.73723,6.04054 7.9551,10.47861 -6.42142,0.24115 -12.85717,0.38364 -19.27858,0.27402 z"
         class="st22"
         inkscape:connector-curvature="0"
         style="fill:#0c0903;stroke:#0c0903;stroke-width:0.11757159" />
      <path
         id="path45860"
         d="m -211.8291,751.58095 c -3.26,-7.26 -4.49,-15.97 -2.21,-23.67 0.27,3.14 0.4,6.3 0.46,9.46 0.07,4.79 1.46,9.43 1.75,14.21 z"
         class="st4"
         inkscape:connector-curvature="0"
         style="fill:#c68721;fill-opacity:1;stroke:#f4d12e;stroke-width:0.0938" />
      <path
         id="path45870"
         d="m -135.21018,733.58203 c 0.57,0.32 1.71,0.96 2.28,1.28 -0.8,5.48 -1.32,11 -2.39,16.44 -0.68,0.41 -1.35,0.84 -2,1.29 -3.41,-0.76 -6.92,0.84 -9.96,2.3 -1.21,-0.32 -2.4,-0.6 -3.59,-0.88 -1.43,0.88 -2.88,1.74 -4.31,2.62 -1.69,-0.77 -3.35,-1.6 -5.02,-2.38 -2.29,1.04 -4.58,2.07 -6.89,3.06 -1.38,-0.8 -2.75,-1.56 -4.12,-2.31 -13.083,4.455 -29.371,-1.583 -30.29,-16.34 4.75,2.47 7.18,7.44 10.4,11.46 1.92,-0.37 3.83,-0.84 5.77,-1.15 2.53,3.4 7.01,2.48 10.68,2.13 1.37,-0.88 2.51,-2.06 3.73,-3.12 1.64,1.28 3.22,2.63 4.86,3.94 2.11,-1.61 4.16,-3.3 6.17,-5.03 1.99,1 3.92,2.12 5.87,3.22 1.25,-1.2 2.48,-2.4 3.74,-3.59 0.97,0.76 1.96,1.54 2.96,2.32 1.11,-1.42 2.22,-2.83 3.35,-4.23 3.2,0.34 5.77,-1.97 7.87,-4.05 0.54,-2.29 0.63,-4.66 0.89,-6.98 z"
         class="st27"
         inkscape:connector-curvature="0"
         style="fill:#0e0904;stroke:#0e0904;stroke-width:0.0938" />
      <path
         id="path45874"
         d="m -132.93018,734.86203 c 3.49,4.68 3.16,11.05 1.09,16.25 -0.92,2.47 -3.44,3.67 -5.5,5.03 -0.34,-1.24 -0.34,-2.42 0.02,-3.55 0.65,-0.45 1.32,-0.88 2,-1.29 1.07,-5.44 1.59,-10.96 2.39,-16.44 z"
         class="st29"
         inkscape:connector-curvature="0"
         style="fill:#c68721;fill-opacity:1;stroke:#c69901;stroke-width:0.0938" />
      <path
         id="path45878"
         d="m -205.41018,736.43203 c 1.24,0.45 2.52,0.93 3.79,1.42 0.951,6.422 2.669,12.049 9.1,15.33 5.95,2.86 12.96,4.26 19.44,2.45 -1.6,5.65 -8.53,4.53 -12.97,3.87 -3.8,-1.65 -7.84,-2.66 -11.67,-4.18 -5.43,-4.58 -7.11,-12.11 -7.69,-18.89 z"
         class="st30"
         inkscape:connector-curvature="0"
         style="fill:#c68721;fill-opacity:1;stroke:#c29707;stroke-width:0.0938" />
      <path
         id="path45914"
         d="m -142.67018,775.40203 c -3.03,0.94 -6.2,1.51 -9.38,1.45 -9.76,-0.8 -19.55,0.22 -29.31,-0.57 6.017,-1.139 37.69,-0.966 38.69,-0.88 z"
         class="st40"
         inkscape:connector-curvature="0"
         style="fill:#c68721;fill-opacity:1;stroke:#eac737;stroke-width:0.0938" />
    </g>
  </g>
  <style
     id="style45786"
     type="text/css">
	.st0{fill:#FBC405;stroke:#FBC405;stroke-width:0.0938;}
	.st1{fill:#060606;stroke:#060606;stroke-width:0.0938;}
	.st2{fill:#F1CA36;stroke:#F1CA36;stroke-width:0.0938;}
	.st3{fill:#F5BF05;stroke:#F5BF05;stroke-width:0.0938;}
	.st4{fill:#F4D12E;stroke:#F4D12E;stroke-width:0.0938;}
	.st5{fill:#070605;stroke:#070605;stroke-width:0.0938;}
	.st6{fill:#EDC636;stroke:#EDC636;stroke-width:0.0938;}
	.st7{fill:#F4BF06;stroke:#F4BF06;stroke-width:0.0938;}
	.st8{fill:#DEC13B;stroke:#DEC13B;stroke-width:0.0938;}
	.st9{fill:#4F3F04;stroke:#4F3F04;stroke-width:0.0938;}
	.st10{fill:#2B2104;stroke:#2B2104;stroke-width:0.0938;}
	.st11{fill:#362906;stroke:#362906;stroke-width:0.0938;}
	.st12{fill:#8D6D06;stroke:#8D6D06;stroke-width:0.0938;}
	.st13{fill:#D2A406;stroke:#D2A406;stroke-width:0.0938;}
	.st14{fill:#FAC306;stroke:#FAC306;stroke-width:0.0938;}
	.st15{fill:#C29805;stroke:#C29805;stroke-width:0.0938;}
	.st16{fill:#C5A019;stroke:#C5A019;stroke-width:0.0938;}
	.st17{fill:#0C0A04;stroke:#0C0A04;stroke-width:0.0938;}
	.st18{fill:#FAC406;stroke:#FAC406;stroke-width:0.0938;}
	.st19{fill:#0D0904;stroke:#0D0904;stroke-width:0.0938;}
	.st20{fill:#D9AA06;stroke:#D9AA06;stroke-width:0.0938;}
	.st21{fill:#C29A08;stroke:#C29A08;stroke-width:0.0938;}
	.st22{fill:#0C0903;stroke:#0C0903;stroke-width:0.0938;}
	.st23{fill:#231900;stroke:#231900;stroke-width:0.0938;}
	.st24{fill:#2A1700;stroke:#2A1700;stroke-width:0.0938;}
	.st25{fill:#140300;stroke:#140300;stroke-width:0.0938;}
	.st26{fill:#2D2105;stroke:#2D2105;stroke-width:0.0938;}
	.st27{fill:#0E0904;stroke:#0E0904;stroke-width:0.0938;}
	.st28{fill:#EACD41;stroke:#EACD41;stroke-width:0.0938;}
	.st29{fill:#C69901;stroke:#C69901;stroke-width:0.0938;}
	.st30{fill:#C29707;stroke:#C29707;stroke-width:0.0938;}
	.st31{fill:#090601;stroke:#090601;stroke-width:0.0938;}
	.st32{fill:#F0CA32;stroke:#F0CA32;stroke-width:0.0938;}
	.st33{fill:#4C3D14;stroke:#4C3D14;stroke-width:0.0938;}
	.st34{fill:#A68F3F;stroke:#A68F3F;stroke-width:0.0938;}
	.st35{fill:#070603;stroke:#070603;stroke-width:0.0938;}
	.st36{fill:#080504;stroke:#080504;stroke-width:0.0938;}
	.st37{fill:#080503;stroke:#080503;stroke-width:0.0938;}
	.st38{fill:#9E8606;stroke:#9E8606;stroke-width:0.0938;}
	.st39{fill:#EBC734;stroke:#EBC734;stroke-width:0.0938;}
	.st40{fill:#EAC737;stroke:#EAC737;stroke-width:0.0938;}
	.st41{fill:#0A0502;stroke:#0A0502;stroke-width:0.0938;}
	.st42{fill:#120600;stroke:#120600;stroke-width:0.0938;}
	.st43{fill:#EFCA34;stroke:#EFCA34;stroke-width:0.0938;}
	.st44{fill:#D9AA07;stroke:#D9AA07;stroke-width:0.0938;}
	.st45{fill:#2C2103;stroke:#2C2103;stroke-width:0.0938;}
	.st46{fill:#1E0900;stroke:#1E0900;stroke-width:0.0938;}
	.st47{fill:#271700;stroke:#271700;stroke-width:0.0938;}
	.st48{fill:#251300;stroke:#251300;stroke-width:0.0938;}
	.st49{fill:#E3C030;stroke:#E3C030;stroke-width:0.0938;}
	.st50{fill:#EBC933;stroke:#EBC933;stroke-width:0.0938;}
	.st51{fill:#EAC93B;stroke:#EAC93B;stroke-width:0.0938;}
	.st52{fill:#B18F24;stroke:#B18F24;stroke-width:0.0938;}
</style>
</svg>
